<svg width="188" height="112" viewBox="0 0 188 112" fill="none" xmlns="http://www.w3.org/2000/svg">
<rect x="0.5" y="16.6592" width="92.3973" height="78.6816" rx="3.5" fill="#333335" stroke="#3C453E"/>
<g filter="url(#filter0_d_36_421)">
<path d="M46.8592 50.2043C44.1963 48.5097 40.7117 50.4226 40.7117 53.5789V58.8171C40.7117 61.9734 44.1963 63.8863 46.8592 62.1917L50.9749 59.5727C53.4449 58.0008 53.4449 54.3952 50.9749 52.8234L46.8592 50.2043Z" fill="#49E78B"/>
</g>
<rect x="27.9315" y="9.41553" width="109.379" height="93.1692" rx="3.5" fill="#333335" stroke="#3C453E"/>
<g filter="url(#filter1_d_36_421)">
<path d="M81.6927 48.4394C79.0298 46.7448 75.5452 48.6577 75.5452 51.814V60.6543C75.5452 63.8107 79.0298 65.7235 81.6927 64.0289L88.6386 59.6088C91.1086 58.037 91.1086 54.4313 88.6386 52.8595L81.6927 48.4394Z" fill="#49E78B"/>
</g>
<rect x="57.1691" y="1" width="129.279" height="110" rx="3" fill="#333335" stroke="#49E78B" stroke-width="2"/>
<g filter="url(#filter2_d_36_421)">
<path d="M116.467 44.3111C115.135 43.4638 113.393 44.4203 113.393 45.9984V66.5588C113.393 68.1369 115.135 69.0934 116.467 68.2461L132.621 57.9659C133.856 57.18 133.856 55.3772 132.621 54.5913L116.467 44.3111Z" fill="#49E78B"/>
<path d="M114.393 45.9987C114.393 45.2096 115.265 44.7313 115.93 45.1549L132.085 55.4352C132.702 55.8282 132.702 56.7298 132.085 57.1227L115.93 67.402C115.265 67.8255 114.394 67.348 114.393 66.5592V45.9987Z" stroke="#49E78B" stroke-width="2"/>
</g>
<defs>
<filter id="filter0_d_36_421" x="0.71167" y="9.57239" width="92.1157" height="93.2512" filterUnits="userSpaceOnUse" color-interpolation-filters="sRGB">
<feFlood flood-opacity="0" result="BackgroundImageFix"/>
<feColorMatrix in="SourceAlpha" type="matrix" values="0 0 0 0 0 0 0 0 0 0 0 0 0 0 0 0 0 0 127 0" result="hardAlpha"/>
<feOffset/>
<feGaussianBlur stdDeviation="20"/>
<feComposite in2="hardAlpha" operator="out"/>
<feColorMatrix type="matrix" values="0 0 0 0 0.286275 0 0 0 0 0.905882 0 0 0 0 0.545098 0 0 0 1 0"/>
<feBlend mode="normal" in2="BackgroundImageFix" result="effect1_dropShadow_36_421"/>
<feBlend mode="normal" in="SourceGraphic" in2="effect1_dropShadow_36_421" result="shape"/>
</filter>
<filter id="filter1_d_36_421" x="35.5452" y="7.8075" width="94.9459" height="96.8533" filterUnits="userSpaceOnUse" color-interpolation-filters="sRGB">
<feFlood flood-opacity="0" result="BackgroundImageFix"/>
<feColorMatrix in="SourceAlpha" type="matrix" values="0 0 0 0 0 0 0 0 0 0 0 0 0 0 0 0 0 0 127 0" result="hardAlpha"/>
<feOffset/>
<feGaussianBlur stdDeviation="20"/>
<feComposite in2="hardAlpha" operator="out"/>
<feColorMatrix type="matrix" values="0 0 0 0 0.286275 0 0 0 0 0.905882 0 0 0 0 0.545098 0 0 0 1 0"/>
<feBlend mode="normal" in2="BackgroundImageFix" result="effect1_dropShadow_36_421"/>
<feBlend mode="normal" in="SourceGraphic" in2="effect1_dropShadow_36_421" result="shape"/>
</filter>
<filter id="filter2_d_36_421" x="73.3932" y="3.99524" width="100.155" height="104.567" filterUnits="userSpaceOnUse" color-interpolation-filters="sRGB">
<feFlood flood-opacity="0" result="BackgroundImageFix"/>
<feColorMatrix in="SourceAlpha" type="matrix" values="0 0 0 0 0 0 0 0 0 0 0 0 0 0 0 0 0 0 127 0" result="hardAlpha"/>
<feOffset/>
<feGaussianBlur stdDeviation="20"/>
<feComposite in2="hardAlpha" operator="out"/>
<feColorMatrix type="matrix" values="0 0 0 0 0.286275 0 0 0 0 0.905882 0 0 0 0 0.545098 0 0 0 1 0"/>
<feBlend mode="normal" in2="BackgroundImageFix" result="effect1_dropShadow_36_421"/>
<feBlend mode="normal" in="SourceGraphic" in2="effect1_dropShadow_36_421" result="shape"/>
</filter>
</defs>
</svg>
