<svg width="174" height="174" viewBox="0 0 174 174" fill="none" xmlns="http://www.w3.org/2000/svg">
<circle cx="86.5126" cy="86.5126" r="85.5126" fill="#151414" stroke="#FF7049" stroke-width="2"/>
<line x1="87.0143" y1="0.0050049" x2="87.0143" y2="173.027" stroke="#FF7049"/>
<line x1="109.388" y1="3.08327" x2="64.6065" y2="170.209" stroke="#FF7049"/>
<line x1="130.202" y1="11.847" x2="43.6916" y2="161.688" stroke="#FF7049"/>
<line x1="148.039" y1="25.6995" x2="25.6945" y2="148.044" stroke="#FF7049"/>
<line x1="161.683" y1="43.6967" x2="11.8421" y2="130.207" stroke="#FF7049"/>
<line x1="170.204" y1="64.6116" x2="3.07814" y2="109.393" stroke="#FF7049"/>
<line x1="173.022" y1="87.0193" x2="6.09914e-05" y2="87.0193" stroke="#FF7049"/>
<line x1="169.943" y1="109.393" x2="2.81749" y2="64.6116" stroke="#FF7049"/>
<line x1="161.179" y1="130.207" x2="11.3383" y2="43.6964" stroke="#FF7049"/>
<line x1="147.327" y1="148.044" x2="24.9823" y2="25.6995" stroke="#FF7049"/>
<line x1="129.33" y1="161.688" x2="42.8191" y2="11.8469" stroke="#FF7049"/>
<line x1="108.415" y1="170.209" x2="63.6337" y2="3.08301" stroke="#FF7049"/>
<line x1="108.415" y1="170.209" x2="63.6337" y2="3.08301" stroke="#FF7049"/>
<circle cx="86.5126" cy="86.5126" r="75.0729" fill="#151414"/>
<path d="M86.0243 86.646L70.0422 27" stroke="white" stroke-width="2"/>
</svg>
